<svg id="svg" version="1.1" xmlns="http://www.w3.org/2000/svg" xmlns:xlink="http://www.w3.org/1999/xlink" width="400" height="400" viewBox="0, 0, 400,400"><g id="svgg"><path id="path0" d="M252.344 115.625 L 252.344 159.766 296.484 159.766 L 340.625 159.766 340.625 115.625 L 340.625 71.484 296.484 71.484 L 252.344 71.484 252.344 115.625 M326.172 115.625 L 326.172 145.313 296.484 145.313 L 266.797 145.313 266.797 115.625 L 266.797 85.938 296.484 85.938 L 326.172 85.938 326.172 115.625 M281.250 115.625 L 281.250 130.859 296.484 130.859 L 311.719 130.859 311.719 115.625 L 311.719 100.391 296.484 100.391 L 281.250 100.391 281.250 115.625 M102.344 133.370 L 102.344 152.344 79.688 152.344 L 57.031 152.344 57.031 235.742 L 57.031 319.141 79.688 319.141 L 102.344 319.141 102.344 290.653 L 102.344 262.166 129.199 262.002 C 158.162 261.826,159.475 261.745,169.531 259.528 C 205.179 251.667,224.760 226.284,224.794 187.891 C 224.829 146.956,202.290 121.519,160.547 115.384 C 156.772 114.829,151.766 114.698,129.199 114.560 L 102.344 114.396 102.344 133.370 M150.272 152.763 C 171.904 155.175,182.920 166.942,182.973 187.695 C 183.014 203.290,177.491 213.201,165.430 219.176 C 156.982 223.361,152.868 223.828,124.429 223.828 L 102.344 223.828 102.344 188.086 L 102.344 152.344 124.429 152.344 C 137.552 152.344,148.040 152.514,150.272 152.763 " stroke="none" fill="#fbfbfb" fill-rule="evenodd"></path><path id="path1" d="M76.367 0.260 C 37.266 5.192,7.791 33.020,0.927 71.484 C -0.215 77.887,-0.215 322.113,0.927 328.516 C 7.461 365.133,34.867 392.539,71.484 399.073 C 77.887 400.215,322.113 400.215,328.516 399.073 C 365.133 392.539,392.539 365.133,399.073 328.516 C 400.215 322.113,400.215 77.887,399.073 71.484 C 392.592 35.164,366.227 8.481,329.492 1.064 L 325.195 0.197 201.367 0.155 C 133.262 0.131,77.012 0.179,76.367 0.260 M340.625 115.625 L 340.625 159.766 296.484 159.766 L 252.344 159.766 252.344 115.625 L 252.344 71.484 296.484 71.484 L 340.625 71.484 340.625 115.625 M266.797 115.625 L 266.797 145.313 296.484 145.313 L 326.172 145.313 326.172 115.625 L 326.172 85.938 296.484 85.938 L 266.797 85.938 266.797 115.625 M311.719 115.625 L 311.719 130.859 296.484 130.859 L 281.250 130.859 281.250 115.625 L 281.250 100.391 296.484 100.391 L 311.719 100.391 311.719 115.625 M160.547 115.384 C 202.290 121.519,224.829 146.956,224.794 187.891 C 224.760 226.284,205.179 251.667,169.531 259.528 C 159.475 261.745,158.162 261.826,129.199 262.002 L 102.344 262.166 102.344 290.653 L 102.344 319.141 79.688 319.141 L 57.031 319.141 57.031 235.742 L 57.031 152.344 79.688 152.344 L 102.344 152.344 102.344 133.370 L 102.344 114.396 129.199 114.560 C 151.766 114.698,156.772 114.829,160.547 115.384 M102.344 188.086 L 102.344 223.828 124.429 223.828 C 156.370 223.828,162.820 222.636,171.991 215.042 C 186.922 202.677,187.096 173.794,172.315 161.216 C 163.316 153.558,156.760 152.344,124.429 152.344 L 102.344 152.344 102.344 188.086 " stroke="none" fill="#21c25e" fill-rule="evenodd"></path></g></svg>